<svg xmlns="http://www.w3.org/2000/svg" xmlns:xlink="http://www.w3.org/1999/xlink" xmlns:serif="http://www.serif.com/" width="100%" height="100%" viewBox="0 0 2501 958" xml:space="preserve" style="fill-rule:evenodd;clip-rule:evenodd;stroke-linejoin:round;stroke-miterlimit:2;">    <g transform="matrix(1,0,0,1,-52,-276)">        <path d="M1593.05,517.086C1535.66,522.612 1492.5,558.223 1464.67,623C1440.8,678.569 1428.98,750.969 1428.92,842C1428.89,874.589 1429.78,892.136 1432.58,914.5C1446.02,1021.99 1491.94,1091.96 1565.03,1116.33C1607.07,1130.35 1662.3,1128.59 1710,1111.7C1728.9,1105.01 1756.4,1090.2 1769.36,1079.72L1772.23,1077.41L1762.08,1043.45C1756.49,1024.78 1751.73,1008.94 1751.5,1008.25C1751.21,1007.43 1748.06,1008.94 1742.33,1012.64C1707.88,1034.86 1671.79,1046.2 1635.5,1046.18C1622.76,1046.18 1619.06,1045.8 1610.92,1043.69C1556.57,1029.57 1528.11,969.682 1524.36,861.547L1523.69,842L1771,842L1770.99,803.75C1770.96,730.247 1766.24,685.428 1753.95,641.944C1731.62,562.916 1687.94,522.192 1620,517.03C1605.24,515.909 1605.28,515.909 1593.05,517.086M2419,517.023C2318.96,524.732 2253.76,597.288 2232.57,724.5C2225.31,768.109 2223.16,826.141 2226.99,875C2235.11,978.339 2266.68,1052.08 2319.95,1092.11C2352.89,1116.87 2397.85,1128.84 2444.16,1125.17C2479.01,1122.42 2506.24,1113.22 2533.09,1095.13C2538.82,1091.27 2545.43,1086.4 2547.78,1084.31L2552.07,1080.5L2542,1048C2536.46,1030.12 2531.71,1014.88 2531.45,1014.13C2531.09,1013.1 2530.17,1013.4 2527.74,1015.35C2508.04,1031.08 2484.17,1042.02 2459.5,1046.63C2452.08,1048.02 2444.99,1048.49 2432,1048.46C2414.88,1048.42 2414.29,1048.35 2405,1045.15C2356.98,1028.62 2330.56,971.464 2322.88,867.5C2321.35,846.647 2321.33,788.366 2322.86,770.5C2326.94,722.848 2335.88,684.519 2349.53,656.13C2371.88,609.658 2406.15,588.173 2448.53,594.068C2473.12,597.488 2499.15,609.055 2523,627.159L2531.87,633.89L2532.42,631.195C2534.04,623.356 2544.88,547.618 2544.48,546.962C2544.21,546.537 2540.51,544.144 2536.24,541.643C2511.13,526.921 2484.89,519.248 2452,517.014C2436.13,515.937 2433.09,515.937 2419,517.023M583,821L583,1117L675,1117L675,852L811,852L811,1117L902,1117L902,525L811,525L811,776L675,776L675,525L583,525L583,821M1050.99,581.25C1050.95,752.772 1041.39,864.602 1018.87,956.935C1012.15,984.501 1001.5,1017.67 993.024,1037.44L991.071,1042L955,1042L955,1234L1037,1234L1037,1117L1291,1117L1291,1234L1373,1234L1373,1042L1327,1042L1327,525L1051,525L1050.99,581.25M1865,821L1865,1117L1956.99,1117L1957.25,970.262L1957.5,823.523L2034.33,968.683C2076.59,1048.52 2111.69,1114.56 2112.33,1115.43C2113.38,1116.86 2118.73,1117 2163.23,1116.76L2212.97,1116.5L2129.38,960.5C2083.4,874.7 2045.76,804.05 2045.74,803.5C2045.7,802.786 2188.03,531.913 2191.67,525.75C2191.92,525.337 2171.05,525.015 2145.31,525.034L2098.5,525.068L2028,661.101L1957.5,797.133L1957.25,661.067L1956.99,525L1865,525L1865,821M1592.1,594.048C1554.52,603.888 1534.19,651.416 1526.51,747.329C1525.68,757.684 1525,766.347 1525,766.579C1525,766.81 1559.24,767 1601.09,767L1677.18,767L1676.55,749.25C1674.4,689.119 1668.7,654.708 1656.55,628.404C1643.01,599.091 1619.89,586.77 1592.1,594.048M1133.98,614.75C1133.93,661.78 1131.46,734.459 1128.44,778C1121.45,878.91 1106.12,965.263 1084.49,1025.5C1081.92,1032.65 1079.59,1039.29 1079.3,1040.25C1078.8,1041.91 1082.98,1042 1157.38,1042L1236,1042L1236,599L1134,599L1133.98,614.75"></path>    </g>    <g transform="matrix(1,0,0,1,-52,-276)">        <path d="M313.5,277.071C233.245,281.443 165.588,319.505 126.395,382.333C106.789,413.76 94.549,449.513 88.336,493.5C85.684,512.277 85.676,571.402 88.323,591C99.599,674.481 134.141,729.853 198,766.82C204.152,770.382 208.364,773.437 208.171,774.199C207.991,774.915 172.778,852.084 129.921,945.686C87.065,1039.29 52,1116.13 52,1116.44C52,1116.75 75.513,1117 104.25,1116.99L156.5,1116.98L299.5,795.063L337.25,795.031L375,795L375,1117L465,1117L465,276L396.25,276.154C358.438,276.239 321.2,276.651 313.5,277.071M306.5,354.137C255.5,360.579 215.817,394.349 197.173,447.169C179.297,497.815 178.371,576.302 195.049,627.237C202.945,651.355 212.682,667.932 227.875,683.125C242.82,698.07 258.83,707.482 279.491,713.469C296.721,718.462 304.142,719.221 340.75,719.734L375,720.213L375,353L344.25,353.126C327.337,353.196 310.35,353.651 306.5,354.137" style="fill:rgb(255,0,0);"></path>    </g></svg>